<svg xmlns="http://www.w3.org/2000/svg" width="64" height="64" viewBox="0 0 64 64">
  <rect width="64" height="64" rx="14" fill="#f8f3ea"/>
  <g transform="translate(3.5, 13) scale(0.595)" fill="none" stroke="#2fd5c8" stroke-linecap="round">
    <circle cx="33" cy="11" r="7.5" fill="#2fd5c8" stroke="none"/>
    <path d="M37 5c3-2.5 6-2 8 .5" stroke-width="4"/>
    <path d="M32 21c-3 6.5-6 12-7 20" stroke-width="8"/>
    <path d="M31 26c4 7 8 13 12 21" stroke-width="6"/>
    <path d="M25 41c-5 4-8 9-9 14" stroke-width="8"/>
    <path d="M16 56c6 2.5 12 2.5 17 1.5" stroke-width="6"/>
    <path d="M26 44c15 9.5 33 12 52 11" stroke-width="8"/>
    <rect x="74" y="49" width="16" height="9" rx="4.5" fill="#2fd5c8" stroke="none"/>
  </g>
</svg>
